Coordinates
version=1
nRows=12
nColumns=24
inDegrees=yes

Units are S.I. units (second, meters, Newtons, ...)
Angles are in degrees.

endheader
time	pelvis_tilt	pelvis_list	pelvis_rotation	pelvis_tx	pelvis_ty	pelvis_tz	hip_flexion_r	hip_adduction_r	hip_rotation_r	knee_angle_r	ankle_angle_r	subtalar_angle_r	mtp_angle_r	hip_flexion_l	hip_adduction_l	hip_rotation_l	knee_angle_l	ankle_angle_l	subtalar_angle_l	mtp_angle_l	lumbar_extension	lumbar_bending	lumbar_rotation
      4.99000000	      1.84393475	      0.95790835	      1.40559214	     -0.59943001	      0.86754714	     -0.19337840	    -19.16342853	      3.55301469	      8.56189848	    -11.30638000	     15.40241252	      1.78407319	      0.00000000	     19.24599886	      5.81503846	     -3.71681997	     -0.59362188	      4.39632815	      0.26972055	      0.00000000	    -21.65766584	     -3.15225617	      4.27714916
      5.00000000	      1.97151095	      1.27696411	      1.84861095	     -0.58602214	      0.86697316	     -0.19501004	    -19.52279811	      3.28878150	      7.51346161	    -12.60665914	     14.72537536	      2.96021306	      0.00000000	     19.50798015	      6.39259565	     -2.25083356	     -2.68090658	      3.85772704	     -1.55856131	      0.00000000	    -21.83084669	     -3.46981453	      4.01198731
      5.01000000	      2.05111941	      1.67711179	      2.28740701	     -0.57236072	      0.86650168	     -0.19664954	    -19.73901577	      2.93124973	      6.28585553	    -14.06962919	     13.83651684	      4.14988239	      0.00000000	     19.80839436	      7.06784509	     -0.84070447	     -4.88060649	      3.05325878	     -3.57036835	      0.00000000	    -21.92856155	     -3.90119544	      3.62241976
      5.02000000	      2.14232146	      2.06015629	      2.51602611	     -0.55861082	      0.86630860	     -0.19820452	    -19.79716168	      2.48130969	      5.05232439	    -15.77226610	     12.71354996	      5.52021615	      0.00000000	     20.05963059	      7.69045446	      0.28916123	     -7.07338671	      2.04531705	     -5.85029814	      0.00000000	    -22.02999955	     -4.32673640	      3.49631135
      5.03000000	      2.24536042	      2.46584666	      2.71893007	     -0.54481288	      0.86638386	     -0.19965277	    -19.69960519	      1.98397555	      3.68526312	    -17.70806448	     11.22100210	      6.74505744	      0.00000000	     20.25288372	      8.31810157	      1.22734470	     -9.23660649	      1.06330450	     -7.83026548	      0.00000000	    -22.16901489	     -4.79692588	      3.22071168
      5.04000000	      2.36838987	      2.87617253	      2.81075899	     -0.53098704	      0.86672770	     -0.20099303	    -19.44204027	      1.40772339	      2.32118222	    -19.87248357	      9.40802637	      7.84812765	      0.00000000	     20.35780587	      8.91430735	      1.87290177	    -11.30926479	      0.24919819	     -9.59853777	      0.00000000	    -22.32738019	     -5.28461976	      3.03639189
      5.05000000	      2.49385731	      3.27087056	      2.79119493	     -0.51709858	      0.86735163	     -0.20221434	    -18.99131180	      0.75894413	      0.96284545	    -22.26629260	      7.18665589	      8.81873340	      0.00000000	     20.34915110	      9.44269084	      2.15090389	    -13.20579605	     -0.19445645	    -10.89172821	      0.00000000	    -22.45513801	     -5.74525945	      2.79938078
      5.06000000	      2.62864168	      3.65957067	      2.71991095	     -0.50334259	      0.86818848	     -0.20333477	    -18.34532123	      0.06262574	     -0.33711302	    -24.89167974	      4.63985730	      9.45905276	      0.00000000	     20.21022414	      9.93772085	      2.34801945	    -14.90393861	     -0.29293743	    -11.86268000	      0.00000000	    -22.61085362	     -6.19777841	      2.54563929
      5.07000000	      2.76844908	      4.02764287	      2.57764632	     -0.48979131	      0.86921993	     -0.20436603	    -17.48669470	     -0.67980973	     -1.52415000	    -27.75216548	      1.80824358	      9.79301717	      0.00000000	     19.92424624	     10.38208895	      2.43193813	    -16.34865462	      0.00057441	    -12.45667314	      0.00000000	    -22.79340077	     -6.61105233	      2.27348137
      5.08000000	      2.92095377	      4.39379722	      2.34818117	     -0.47637727	      0.87041808	     -0.20536081	    -16.44926056	     -1.50076342	     -2.59078519	    -30.79984490	     -1.25046262	      9.82263610	      0.00000000	     19.45449852	     10.80057800	      2.38569474	    -17.48451299	      0.67682365	    -12.75773155	      0.00000000	    -22.96755517	     -6.98357355	      1.95933942
      5.09000000	      2.98454599	      4.70511831	      2.16995367	     -0.46331577	      0.87157774	     -0.20642752	    -15.12434466	     -2.29836456	     -3.60642987	    -34.03188324	     -4.43601630	      9.52138759	      0.00000000	     18.96848871	     11.17582657	      2.31423715	    -18.40473188	      1.69900501	    -12.64854680	      0.00000000	    -23.07036983	     -7.23156203	      1.51359867
      5.10000000	      3.05555821	      5.04688088	      1.91299516	     -0.45048925	      0.87283423	     -0.20741937	    -13.64278002	     -3.17969801	     -4.44020128	    -37.39204493	     -7.67627712	      8.83986048	      0.00000000	     18.31453640	     11.56259007	      2.15261188	    -19.00299705	      2.86139587	    -12.41435005	      0.00000000	    -23.18347370	     -7.48942705	      1.03872746
